HIERARCHY
ROOT Hips
{
	OFFSET 0.000000 0.000000 0.000000
	CHANNELS 6 Xposition Yposition Zposition Zrotation Yrotation Xrotation 
	JOINT LeftUpLeg_virtual
	{
		OFFSET 0.000000 0.000000 0.000000
		CHANNELS 3 Zrotation Yrotation Xrotation
		JOINT LeftUpLeg
		{
			OFFSET 8.479694 -4.795517 -0.379053
			CHANNELS 3 Zrotation Yrotation Xrotation
			JOINT LeftLeg
			{
				OFFSET 0.485052 -32.551468 0.112863
				CHANNELS 3 Zrotation Yrotation Xrotation
				JOINT LeftFoot
				{
					OFFSET 0.438033 -32.635670 -3.012641
					CHANNELS 3 Zrotation Yrotation Xrotation
					JOINT LeftToeBase
					{
						OFFSET 0.970169 -13.225353 11.864223
						CHANNELS 3 Zrotation Yrotation Xrotation
						End Site
						{
							OFFSET 0.000000 0.000000 0.000000
						}
					}
				}
			}
		}
	}
	JOINT RightUpLeg_virtual
	{
		OFFSET 0.000000 0.000000 0.000000
		CHANNELS 3 Zrotation Yrotation Xrotation
		JOINT RightUpLeg
		{
			OFFSET -8.479694 -4.795517 -0.379053
			CHANNELS 3 Zrotation Yrotation Xrotation
			JOINT RightLeg
			{
				OFFSET -0.484100 -32.551483 0.112903
				CHANNELS 3 Zrotation Yrotation Xrotation
				JOINT RightFoot
				{
					OFFSET -0.438985 -32.635651 -3.012681
					CHANNELS 3 Zrotation Yrotation Xrotation
					JOINT RightToeBase
					{
						OFFSET -0.970169 -13.225354 11.864223
						CHANNELS 3 Zrotation Yrotation Xrotation
						End Site
						{
							OFFSET 0.000000 0.000000 0.000000
						}
					}
				}
			}
		}
	}
	JOINT Spine_virtual
	{
		OFFSET 0.000000 0.000000 0.000000
		CHANNELS 3 Zrotation Yrotation Xrotation
		JOINT Spine
		{
			OFFSET 0.000000 7.722015 1.166203
			CHANNELS 3 Zrotation Yrotation Xrotation
			JOINT Spine1
			{
				OFFSET 0.000000 12.024086 0.248766
				CHANNELS 3 Zrotation Yrotation Xrotation
				JOINT Spine2
				{
					OFFSET -0.000000 11.503036 -0.491240
					CHANNELS 3 Zrotation Yrotation Xrotation
					JOINT Neck_virtual
					{
						OFFSET 0.000000 0.000000 0.000000
						CHANNELS 3 Zrotation Yrotation Xrotation
						JOINT Neck
						{
							OFFSET 0.000000 18.430687 -3.123054
							CHANNELS 3 Zrotation Yrotation Xrotation
							JOINT Head
							{
								OFFSET -0.000000 9.051071 1.034021
								CHANNELS 3 Zrotation Yrotation Xrotation
								End Site
								{
									OFFSET 0.000000 0.000000 0.000000
								}
							}
						}
					}
					JOINT LeftShoulder_virtual
					{
						OFFSET 0.000000 0.000000 0.000000
						CHANNELS 3 Zrotation Yrotation Xrotation
						JOINT LeftShoulder
						{
							OFFSET 6.197824 13.665230 -4.064723
							CHANNELS 3 Zrotation Yrotation Xrotation
							JOINT LeftArm
							{
								OFFSET 7.778132 -0.187073 -1.709282
								CHANNELS 3 Zrotation Yrotation Xrotation
								JOINT LeftForeArm
								{
									OFFSET 21.954697 0.000000 -2.041093
									CHANNELS 3 Zrotation Yrotation Xrotation
									JOINT LeftHand
									{
										OFFSET 22.992908 0.000000 -0.870901
										CHANNELS 3 Zrotation Yrotation Xrotation
										End Site
										{
											OFFSET 0.000000 0.000000 0.000000
										}
									}
								}
							}
						}
					}
					JOINT RightShoulder_virtual
					{
						OFFSET 0.000000 0.000000 0.000000
						CHANNELS 3 Zrotation Yrotation Xrotation
						JOINT RightShoulder
						{
							OFFSET -6.197824 13.665230 -4.064723
							CHANNELS 3 Zrotation Yrotation Xrotation
							JOINT RightArm
							{
								OFFSET -7.778132 -0.187073 -1.709282
								CHANNELS 3 Zrotation Yrotation Xrotation
								JOINT RightForeArm
								{
									OFFSET -21.954697 0.000000 -2.041093
									CHANNELS 3 Zrotation Yrotation Xrotation
									JOINT RightHand
									{
										OFFSET -22.992908 0.000000 -0.870901
										CHANNELS 3 Zrotation Yrotation Xrotation
										End Site
										{
											OFFSET 0.000000 0.000000 0.000000
										}
									}
								}
							}
						}
					}
				}
			}
		}
	}
}
MOTION
Frames: 5
Frame Time: 0.033333
1.108099 81.063339 24.572454 179.804935 2.872480 -179.875504 -2.453361 -3.210415 13.815143 2.802508 -3.783342 -22.044157 7.386255 0.110049 28.003658 -1.468901 -7.379347 -12.735986 0.000000 0.000000 0.000000 2.108648 -4.228579 13.417072 -5.032609 4.100208 -24.872293 0.340839 4.562002 33.659982 11.035703 4.057298 -13.187797 0.000000 0.000000 0.000000 3.682409 -0.375247 0.262781 -3.038139 0.923430 -2.472390 0.684861 -1.810535 8.243592 0.021858 0.141924 0.010636 0.508023 -0.686352 8.670267 0.141031 2.446872 -4.296148 0.000000 0.000000 0.000000 1.740197 0.150940 5.895036 -13.876708 -10.319686 3.771550 -48.033114 -29.418844 3.145641 -1.235284 -36.716611 1.083780 0.000000 0.000000 0.000000 -1.784598 1.517200 5.499705 30.111582 2.343013 6.812432 39.162095 21.047955 9.566029 -0.897985 32.897203 -1.808850 0.000000 0.000000 0.000000 
1.094280 81.086395 24.585772 179.700733 3.400320 -179.764978 -2.396216 -3.362332 13.930845 2.883074 -4.035809 -21.671196 7.406353 -0.372652 28.272424 -1.644452 -7.550358 -12.449618 0.000000 0.000000 0.000000 2.126196 -4.839289 13.350589 -4.902079 3.628751 -24.619296 0.403652 4.223605 33.822479 10.980070 4.003899 -13.201314 0.000000 0.000000 0.000000 3.680602 -0.378514 0.169277 -3.126221 1.016273 -2.489223 0.669132 -1.731387 8.193835 0.056634 0.366641 0.071349 0.559012 -0.587850 8.620305 0.181968 2.345802 -4.409507 0.000000 0.000000 0.000000 1.779782 0.124272 5.784519 -13.754331 -10.429880 3.734772 -47.878789 -30.192930 2.685560 -1.327499 -37.662315 1.182188 0.000000 0.000000 0.000000 -1.788486 1.521356 5.504884 30.033336 2.516586 6.839672 39.067470 21.461750 9.747961 -1.024709 32.986153 -1.928490 0.000000 0.000000 0.000000 
1.102292 81.114029 24.582705 179.689409 3.537975 -179.759336 -2.423811 -3.374561 13.826560 2.844690 -3.954679 -21.537340 7.404454 -0.359762 28.192982 -1.657795 -7.526405 -12.293924 0.000000 0.000000 0.000000 2.117154 -4.974912 13.204335 -4.936746 3.573877 -24.477047 0.434169 4.247962 33.801862 11.065607 4.114333 -13.128692 0.000000 0.000000 0.000000 3.739305 -0.454749 0.147292 -3.171823 1.050875 -2.439141 0.687265 -1.710866 8.209952 0.070901 0.290970 0.041679 0.572378 -0.588397 8.684704 0.275004 2.250737 -4.432768 0.000000 0.000000 0.000000 1.775739 0.176648 5.728422 -13.753182 -10.434290 3.694386 -47.720773 -31.067710 2.242112 -1.363128 -39.190454 1.266051 0.000000 0.000000 0.000000 -1.793888 1.657972 5.541815 29.917625 2.878074 6.854762 39.128914 21.671219 10.000880 -0.995358 33.069864 -1.916431 0.000000 0.000000 0.000000 
1.139428 81.144463 24.561483 179.686814 3.728173 -179.725063 -2.430866 -3.333660 13.795324 2.829012 -3.853570 -21.463470 7.403242 -0.351215 28.035510 -1.654772 -7.508885 -12.124159 0.000000 0.000000 0.000000 2.128294 -4.977190 13.128843 -4.950534 3.596014 -24.421671 0.436772 4.255182 33.753279 11.080604 4.170248 -13.018391 0.000000 0.000000 0.000000 3.805183 -0.396121 0.152144 -3.240494 1.151405 -2.396426 0.675901 -1.689472 8.333375 0.051728 0.270516 0.029415 0.599818 -0.607241 8.572858 0.503859 2.089618 -4.588933 0.000000 0.000000 0.000000 1.807440 0.172631 5.750258 -13.750234 -10.365820 3.626896 -47.714766 -31.584864 1.812723 -1.481912 -40.882514 1.537124 0.000000 0.000000 0.000000 -1.788861 1.593061 5.481405 29.795672 3.140830 6.875507 39.187353 21.777817 10.322923 -0.867380 32.980122 -1.813628 0.000000 0.000000 0.000000 
1.185592 81.168076 24.544773 179.681022 3.851263 -179.716853 -2.437063 -3.298902 13.876210 2.834101 -3.784281 -21.481174 7.407099 -0.378579 27.882746 -1.614657 -7.509053 -11.987907 0.000000 0.000000 0.000000 2.136798 -4.969749 13.157473 -4.947398 3.663959 -24.486051 0.419768 4.262084 33.764094 11.017977 4.179304 -12.908929 0.000000 0.000000 0.000000 3.828286 -0.430143 0.274999 -3.304306 1.173092 -2.393871 0.691068 -1.709988 8.319014 0.093533 0.320684 0.038161 0.552402 -0.747748 8.681190 0.846244 1.917216 -4.648887 0.000000 0.000000 0.000000 1.768176 0.164553 5.746639 -13.749226 -10.256075 3.749115 -47.816256 -31.461265 1.721734 -1.598761 -42.502850 1.947275 0.000000 0.000000 0.000000 -1.840060 1.681144 5.491304 29.707928 3.490012 7.046292 39.444691 21.560629 10.835959 -1.018861 32.763103 -1.974366 0.000000 0.000000 0.000000 
